# xmcd
#
# Track frame offsets:
#	150
#	19184
#	38864
#	53516
#	69572
#	88810
#	107627
#	123255
#	140282
#	157423
#	174891
#	196649
#	211689
#	227807
#	249281
#
# Disc length: 3527 seconds
#
# Revision: 1
# Processed by: cddbd v1.5.2PL0 Copyright (c) Steve Scherf et al.
# Submitted via: audiograbber 1.83.01
#
DISCID=bf0dc50f
DTITLE=Various Artist - CB60373
DYEAR=1900
DGENRE=Country
TTITLE0=Brad Paisley - I'm Still A Guy
TTITLE1=Rascal Flatts - Every Day
TTITLE2=Emily West - Rocks In Your Shoes
TTITLE3=George Strait - I Saw God Today
TTITLE4=Montgomery Gentry - Back When I Knew It All
TTITLE5=Reba McEntire and Skip Ewing - Every Other Weekend
TTITLE6=Luke Bryan - Country Man
TTITLE7=Crystal Shawanda - You Can Let Go
TTITLE8=Phil Stacey - If You Didn't Love Me
TTITLE9=Mica Roberts feat. Toby Keith - Things A Mama Don't Know
TTITLE10=Dolly Parton - Jesus and Gravity
TTITLE11=Toby Keith - She's A Hottie
TTITLE12=Jeff Bates - Don't Hate Me For Lovin' You
TTITLE13=Point Of Grace - How You Live (Turn Up The Music)
TTITLE14=Lost Trailers - Holler Back
EXTD=
EXTT0=
EXTT1=
EXTT2=
EXTT3=
EXTT4=
EXTT5=
EXTT6=
EXTT7=
EXTT8=
EXTT9=
EXTT10=
EXTT11=
EXTT12=
EXTT13=
EXTT14=
PLAYORDER=
